<svg xmlns="http://www.w3.org/2000/svg" width="130" height="142" viewBox="0 0 130 142">
    <g fill="none" fill-rule="evenodd">
        <g>
            <g>
                <path stroke="#CFD0DF" stroke-width=".891" d="M27.375 21.533L13.78 110.749c-.304 1.991.062 4.007 1.012 5.584s2.405 2.58 4.028 2.78c16.383 2.011 63.345 8.79 79.23 10.74 3.22.395 6.48-2.391 6.85-6.369 1.399-15.11 3.901-44.103 7.506-86.976.184-2.18-1.381-4.12-3.552-4.402L27.375 21.533h0z" transform="translate(-780 -5094) scale(-1 1) rotate(-5 58000.15 12956.05)"/>
                <g transform="translate(-780 -5094) scale(-1 1) rotate(-5 58000.15 12956.05)">
                    <g>
                        <g>
                            <path fill="#272848" d="M96.952 35.571H12.76l3.226 72.546c.141 3.164 2.644 5.654 5.684 5.654h72.8c1.555 0 3.042-.663 4.115-1.834 1.074-1.172 1.64-2.75 1.569-4.369l-3.202-71.997z" transform="rotate(-2 118.936 -2.899) rotate(12 56.46 74.671)"/>
                            <path fill="#7A7BA3" d="M96.65 35.202H13.2v68.748c0 1.496.593 2.93 1.65 3.988 1.058 1.058 2.493 1.652 3.989 1.652h72.17c1.496 0 2.93-.594 3.988-1.652 1.058-1.057 1.652-2.492 1.652-3.988V35.202z" transform="rotate(-2 118.936 -2.899) rotate(12 54.924 72.396)"/>
                            <path fill="#A1A1B7" d="M93.32 34.494H9.87v68.748c0 1.496.594 2.93 1.651 3.988 1.058 1.058 2.493 1.652 3.988 1.652h72.17c1.497 0 2.931-.594 3.989-1.652 1.057-1.057 1.651-2.492 1.651-3.988V34.494z" transform="rotate(-2 118.936 -2.899) rotate(12 51.594 71.688)"/>
                            <path fill="#FFF" stroke="#D4D4E7" stroke-linecap="round" stroke-linejoin="round" stroke-width="1.179" d="M100.069 43.967l-81.627-17.35L1.791 93.155c-.372 1.485-.124 3.057.687 4.356.81 1.298 2.114 2.211 3.611 2.53l70.587 15.003c2.97.631 5.906-1.202 6.643-4.147l16.75-66.93h0z" transform="rotate(-2 118.936 -2.899)"/>
                            <g stroke="#DFE0E3" stroke-width="1.148" opacity=".556">
                                <path d="M.748 28.124L71.475 28.124M1.903 9.218L72.63 9.218M.446 47.628L71.174 47.628M10.686.252L9.213 56.245M28.611.084L27.138 56.076M64.589.473L63.116 56.466M46.664.641L45.191 56.634" transform="rotate(-2 118.936 -2.899) rotate(12 -154.99 120.785)"/>
                            </g>
                            <g>
                                <path fill="#272848" d="M0.19 20.693H87.111V21.734H0.19z" transform="rotate(-2 118.936 -2.899) rotate(12 -13.728 111.055)"/>
                                <path fill="#14152F" d="M87.111 5.721c0-3.156-2.559-5.715-5.716-5.715H9.377C6.22.006 3.661 2.565 3.661 5.72v14.972h83.45V5.721z" transform="rotate(-2 118.936 -2.899) rotate(12 -13.728 111.055)"/>
                                <path fill="#272848" d="M83.64 5.721c0-3.156-2.559-5.715-5.716-5.715H5.906C2.75.006.19 2.565.19 5.72v14.972h83.45V5.721z" transform="rotate(-2 118.936 -2.899) rotate(12 -13.728 111.055)"/>
                                <path stroke="#FFF" stroke-width="1.137" d="M52.64 10.288c0-1.79-1.454-3.245-3.245-3.245H34.428c-1.79 0-3.244 1.454-3.244 3.245 0 1.791 1.454 3.245 3.244 3.245h14.967c1.791 0 3.245-1.454 3.245-3.245z" opacity=".215" transform="rotate(-2 118.936 -2.899) rotate(12 -13.728 111.055)"/>
                            </g>
                            <g transform="rotate(-2 118.936 -2.899) rotate(12 19.451 186.074)">
                                <circle cx="7.612" cy="17.293" r="3.298" fill="#E66D6B"/>
                                <path fill="#FFF" d="M7.612 13.307c-2.2 0-3.987 1.786-3.987 3.986s1.787 3.987 3.987 3.987 3.987-1.786 3.987-3.987c0-2.2-1.787-3.986-3.987-3.986zm0 .688c1.82 0 3.298 1.478 3.298 3.298s-1.478 3.298-3.298 3.298-3.298-1.477-3.298-3.298c0-1.82 1.478-3.298 3.298-3.298z"/>
                                <circle cx="7.612" cy="17.293" r="3.298" fill="#494E5F"/>
                                <path fill="#090A29" d="M8.747 14.196c1.262.463 2.163 1.676 2.163 3.097 0 1.422-.901 2.634-2.163 3.097-1.261-.463-2.162-1.675-2.162-3.097 0-1.421.9-2.634 2.162-3.097z"/>
                                <g>
                                    <path fill="#54C1FB" d="M8.117 14.928c1.187 0 2.029 1.276 1.93 2.62-.081 1.105-.932 2.11-1.93 2.11-4.283 0-8.1-4.254-8.1-9.829C.017 4.255 3.834 0 8.117 0c3.939 0 7.483 3.597 8.028 8.51h-4.777c-.177-.967-.548-1.834-1.072-2.516-.568-.739-1.314-1.263-2.179-1.263-.865 0-1.61.524-2.178 1.263-.753.98-1.191 2.342-1.191 3.835 0 1.494.438 2.856 1.19 3.836.568.738 1.314 1.263 2.18 1.263z"/>
                                    <path fill="#3C84AA" d="M15.966 7.394c.077.364.137.737.18 1.117h-4.778c-.07-.39-.174-.764-.306-1.117h4.904z"/>
                                    <path fill="#FFF" d="M3.822 18.136C1.577 16.418.017 13.393.017 9.829.017 4.255 3.834 0 8.117 0c1.208 0 2.378.338 3.437.95C10.916.763 9.927.508 9.242.508 4.263.509.855 4.913.855 10.48c0 2.913 1.314 5.813 2.967 7.655z" opacity=".258"/>
                                </g>
                            </g>
                            <g transform="rotate(-2 118.936 -2.899) rotate(12 -.103 372.12)">
                                <circle cx="7.685" cy="17.293" r="3.298" fill="#E66D6B"/>
                                <path fill="#FFF" d="M7.685 13.307c-2.2 0-3.986 1.786-3.986 3.986s1.786 3.987 3.986 3.987 3.987-1.786 3.987-3.987c0-2.2-1.786-3.986-3.987-3.986zm0 .688c1.82 0 3.298 1.478 3.298 3.298s-1.477 3.298-3.298 3.298c-1.82 0-3.298-1.477-3.298-3.298 0-1.82 1.478-3.298 3.298-3.298z"/>
                                <circle cx="7.685" cy="17.293" r="3.298" fill="#494E5F"/>
                                <path fill="#090A29" d="M8.82 14.196c1.263.463 2.163 1.676 2.163 3.097 0 1.422-.9 2.634-2.162 3.097-1.262-.463-2.163-1.675-2.163-3.097 0-1.421.901-2.634 2.163-3.097z"/>
                                <g>
                                    <path fill="#54C1FB" d="M8.19 14.928c1.187 0 2.03 1.276 1.93 2.62-.081 1.105-.931 2.11-1.93 2.11-4.282 0-8.1-4.254-8.1-9.829C.09 4.255 3.908 0 8.19 0c3.939 0 7.483 3.597 8.029 8.51h-4.777c-.177-.967-.549-1.834-1.073-2.516-.567-.739-1.313-1.263-2.178-1.263s-1.611.524-2.179 1.263c-.753.98-1.19 2.342-1.19 3.835 0 1.494.437 2.856 1.19 3.836.568.738 1.314 1.263 2.179 1.263z"/>
                                    <path fill="#3C84AA" d="M16.04 7.394c.076.364.137.737.179 1.117h-4.777c-.072-.39-.175-.764-.307-1.117h4.904z"/>
                                    <path fill="#FFF" d="M3.895 18.136C1.65 16.418.09 13.393.09 9.829.09 4.255 3.908 0 8.19 0c1.208 0 2.379.338 3.437.95C10.99.763 10 .508 9.315.508 4.337.509.928 4.913.928 10.48c0 2.913 1.314 5.813 2.967 7.655z" opacity=".258"/>
                                </g>
                            </g>
                        </g>
                    </g>
                    <rect width="17.191" height="18.009" x="30.16" y="50.743" fill="#54C1FB" rx=".819" transform="rotate(10 38.756 59.748)"/>
                    <rect width="17.191" height="18.009" x="61.395" y="76.13" fill="#54C1FB" rx=".819" transform="rotate(10 69.99 85.135)"/>
                </g>
            </g>
        </g>
    </g>
</svg>
