<svg xmlns="http://www.w3.org/2000/svg" width="126" height="119" viewBox="0 0 126 119">
    <g fill="none" fill-rule="evenodd">
        <g>
            <g>
                <g>
                    <g>
                        <path fill="#474AC3" fill-rule="nonzero" d="M80.857 40.335c.61-1.76 2.318-3.008 4.117-3.008h35.587c2.132 0 3.66 1.735 3.407 3.88l-7.917 67.469c-.253 2.14-2.185 3.879-4.317 3.879h-89.23c-2.133 0-3.661-1.735-3.408-3.88l6.74-57.433c.254-2.14 2.186-3.879 4.318-3.879h41.088c4.201 0 8.188-2.913 9.615-7.028z" transform="translate(-391 -5101) translate(282 5031) translate(110 70)"/>
                        <g>
                            <g transform="translate(-391 -5101) translate(282 5031) translate(110 70) translate(.043 .403) rotate(-27 63.653 14.927)">
                                <rect width="60.058" height="57.556" x="2.856" y="3.06" fill="#FFF" stroke="#CFD0DF" stroke-width=".775" rx="5.005" transform="rotate(-6 32.885 31.838)"/>
                                <path fill="#272848" fill-rule="nonzero" d="M23.543 28.28l18.782-.001c.442 0 .8.358.8.8v.001c0 .443-.358.801-.8.801l-18.782.002c-.442 0-.801-.359-.801-.801 0-.443.359-.802.801-.802z" transform="rotate(-5 32.934 29.08)"/>
                                <path fill="#272848" fill-rule="nonzero" d="M15.091 37.136l39.712-.001c.442 0 .8.358.8.8 0 .444-.358.802-.8.802l-39.712.002c-.443 0-.801-.359-.801-.801 0-.443.359-.802.801-.802z" transform="rotate(-5 34.947 37.937)"/>
                            </g>
                        </g>
                        <g transform="translate(-391 -5101) translate(282 5031) translate(110 70) rotate(13 -46.544 271.728)">
                            <rect width="60.058" height="57.556" x="2.952" y="3.011" fill="#FFF" stroke="#CFD0DF" stroke-width=".775" rx="5.005" transform="rotate(-6 32.98 31.789)"/>
                            <path fill="#272848" fill-rule="nonzero" d="M12.551 15.034l37.038-.001c.443 0 .801.358.801.8v.001c0 .443-.359.801-.801.801l-37.038.002c-.443 0-.801-.359-.801-.801 0-.443.359-.802.801-.802z" transform="rotate(-6 31.07 15.835)"/>
                            <path fill="#272848" fill-rule="nonzero" d="M14.884 35.55h37.038c.442 0 .8.358.8.8 0 .443-.358.802-.801.802l-37.038.002c-.442 0-.8-.359-.8-.801 0-.443.358-.802.8-.802z" transform="rotate(-6 33.402 36.352)"/>
                            <path fill="#272848" fill-rule="nonzero" d="M14.083 25.386l27.378-.001c.442 0 .801.359.801.801 0 .443-.36.802-.802.802l-27.377.001c-.443 0-.801-.359-.801-.801 0-.443.359-.802.801-.802z" transform="rotate(-6 27.772 26.187)"/>
                        </g>
                        <path fill="#6A6EF4" fill-rule="nonzero" d="M65.287 57.848c.239-1.446 1.682-2.468 3.484-2.468h35.588c2.132 0 4.025 1.425 4.226 3.182l4.766 51.396c.2 1.758-1.366 3.183-3.502 3.183H20.62c-2.132 0-4.026-1.425-4.226-3.183l-3.832-43.162c-.2-1.757 1.366-3.183 3.502-3.183H57.15c4.201.004 7.577-2.388 8.136-5.765z" transform="translate(-391 -5101) translate(282 5031) translate(110 70)"/>
                        <path stroke="#CFD0DF" d="M60.223 62.309h0c.24-1.446 1.683-2.469 3.485-2.469h35.587c2.133 0 4.026 1.425 4.226 3.183l4.767 51.396c.2 1.757-1.366 3.183-3.502 3.183h-89.23c-2.133 0-4.026-1.426-4.226-3.183L7.497 71.257c-.2-1.758 1.367-3.183 3.502-3.183h41.089c4.201.003 7.577-2.388 8.135-5.765z" transform="translate(-391 -5101) translate(282 5031) translate(110 70)"/>
                    </g>
                    <g fill-rule="nonzero">
                        <g>
                            <g>
                                <path fill="#6DC8F9" d="M1.132 4.547h4.093c.569-.015 1.058.519 1.058 1.144 0 .3-.071.611-.283.824l-4.068 4.057c-.413.32-1.13.376-1.572-.066C.148 10.294 0 9.93 0 9.63V5.68c0-.625.507-1.132 1.132-1.132z" transform="translate(-391 -5101) translate(282 5031) translate(110 70) rotate(-32 65.339 -35.464)"/>
                                <path fill="#6D71F9" d="M1.137 0h5.212c.628 0 1.137.509 1.137 1.137 0 .301-.12.59-.333.803L2.19 6.927c-.444.444-1.385.29-1.829-.155C.147 6.56 0 6.224 0 5.922V1.137C0 .509.509 0 1.137 0z" transform="translate(-391 -5101) translate(282 5031) translate(110 70) rotate(-32 65.339 -35.464)"/>
                                <path fill="#4D51C0" d="M4.547 4.547c-1.18 1.225-1.94 2-2.281 2.328-.512.491-1.359.444-1.803 0-.213-.213-.437-.522-.437-.824L0 5.68c0-.4.355-1.127 1.132-1.132.518-.003 1.656-.003 3.415 0z" transform="translate(-391 -5101) translate(282 5031) translate(110 70) rotate(-32 65.339 -35.464)"/>
                            </g>
                        </g>
                    </g>
                </g>
            </g>
        </g>
    </g>
</svg>
