<svg xmlns="http://www.w3.org/2000/svg" width="74" height="111" viewBox="0 0 74 111">
    <g fill="none" fill-rule="evenodd">
        <g>
            <g>
                <g stroke="#CFD0DF" stroke-width=".891">
                    <g>
                        <path d="M46.572 40.528c5.571 0 10.087 4.516 10.087 10.087 0 2.675-1.063 5.241-2.954 7.133L17.22 94.233c-3.94 3.94-10.326 3.94-14.266 0C1.063 92.34 0 89.776 0 87.1V10.132C0 4.536 4.536 0 10.132 0h46.463c5.596 0 10.133 4.536 10.133 10.132 0 2.687-1.068 5.264-2.968 7.164L40.528 40.528h6.044z" transform="translate(-1180 -5111) translate(1180 5111) translate(6 13)"/>
                    </g>
                </g>
                <g fill-rule="nonzero">
                    <g>
                        <path fill="#6DC8F9" d="M10.087 40.528h36.485c5.571 0 10.087 4.516 10.087 10.087 0 2.675-1.063 5.241-2.954 7.133L17.22 94.233c-3.94 3.94-10.326 3.94-14.266 0C1.063 92.34 0 89.776 0 87.1V50.615c0-5.57 4.516-10.087 10.087-10.087z" transform="translate(-1180 -5111) translate(1180 5111)"/>
                        <path fill="#6D71F9" d="M10.132 0h46.463c5.596 0 10.133 4.536 10.133 10.132 0 2.687-1.068 5.264-2.968 7.164L17.296 63.76C13.2 67.2 6.956 66.957 3 63c-1.9-1.9-3-3.717-3-6.405V10.132C0 4.536 4.536 0 10.132 0z" transform="translate(-1180 -5111) translate(1180 5111)"/>
                        <path fill="#4D51C0" d="M40.528 40.528L18 63.6c-3.6 3-8.968 4.04-14.4 0C1.301 61.89 0 59.283 0 56.595v-5.98c0-5.57 4.516-10.087 10.087-10.087h30.44z" transform="translate(-1180 -5111) translate(1180 5111)"/>
                    </g>
                </g>
            </g>
        </g>
    </g>
</svg>
