<svg xmlns="http://www.w3.org/2000/svg" width="112" height="110" viewBox="0 0 112 110">
    <g fill="none" fill-rule="evenodd">
        <g>
            <g>
                <g>
                    <g fill="#FFF" transform="translate(-1172 -4636) translate(1172 4636) translate(0 54)">
                        <rect width="18" height="52" x="2" fill-opacity=".436" rx="3.986"/>
                        <rect width="18" height="52" y="1" rx="3.986"/>
                    </g>
                    <g fill="#6DC8F9" transform="translate(-1172 -4636) translate(1172 4636) translate(36 36)">
                        <rect width="17.938" height="70" x="2" opacity=".452" rx="3.986"/>
                        <rect width="17.938" height="70" y="1" rx="3.986"/>
                    </g>
                </g>
                <g>
                    <path fill="#6D71F9" d="M34.163.879l21.334 21.334c.782.781.782 2.048 0 2.829-.375.375-.883.585-1.414.585H41.556v75.392c0 2.201-1.784 3.986-3.986 3.986h-9.965c-2.202 0-3.987-1.785-3.987-3.986V25.627H10c-1.105 0-2-.895-2-2 0-.53.21-1.039.586-1.414L29.92.88c1.172-1.172 3.071-1.172 4.243 0z" opacity=".548" transform="translate(-1172 -4636) translate(1172 4636) translate(55 1)"/>
                    <path fill="#6D71F9" d="M32.163 1.879l21.334 21.334c.782.781.782 2.048 0 2.829-.375.375-.883.585-1.414.585H39.556v75.392c0 2.201-1.784 3.986-3.986 3.986h-9.965c-2.202 0-3.987-1.785-3.987-3.986V26.627H8c-1.105 0-2-.895-2-2 0-.53.21-1.039.586-1.414L27.92 1.88c1.172-1.172 3.071-1.172 4.243 0z" transform="translate(-1172 -4636) translate(1172 4636) translate(55 1)"/>
                    <path stroke="#CFD0DF" d="M26.173 3.866L47.534 24.97c.786.776.793 2.043.017 2.828-.376.38-.888.595-1.423.595l-12.527-.001v75.614c0 2.201-1.784 3.986-3.985 3.986H19.607c-2.201 0-3.986-1.785-3.986-3.986l-.001-75.614H2c-1.105 0-2-.895-2-2 0-.534.214-1.046.594-1.422L21.956 3.866c1.168-1.155 3.048-1.155 4.217 0z" transform="translate(-1172 -4636) translate(1172 4636) translate(55 1)"/>
                </g>
            </g>
        </g>
    </g>
</svg>
